<?xml version="1.0" standalone="no"?>
<!DOCTYPE svg PUBLIC "-//W3C//DTD SVG 20010904//EN"
 "http://www.w3.org/TR/2001/REC-SVG-20010904/DTD/svg10.dtd">
<svg version="1.0" xmlns="http://www.w3.org/2000/svg"
 width="300.000000pt" height="300.000000pt" viewBox="0 0 300.000000 300.000000"
 preserveAspectRatio="xMidYMid meet">
<metadata>
Created by potrace 1.10, written by Peter Selinger 2001-2011
</metadata>
<g transform="translate(0.000000,300.000000) scale(0.100000,-0.100000)"
fill="#000000" stroke="none">
<path d="M760 2078 c-30 -21 -51 -48 -63 -83 -2 -5 -18 3 -36 18 -72 61 -171
17 -171 -76 0 -35 6 -50 26 -71 15 -14 33 -26 40 -26 8 0 14 -5 14 -11 0 -7
-12 -9 -36 -5 l-35 7 17 -33 c10 -18 19 -27 21 -20 3 6 11 12 19 12 11 0 14
-16 14 -70 0 -56 3 -70 15 -70 17 0 20 -16 5 -25 -9 -6 -68 -12 -137 -14 -16
-1 -23 -7 -23 -22 0 -19 4 -21 38 -14 20 4 42 10 47 15 6 4 29 11 53 15 32 5
42 11 42 25 0 25 80 35 221 27 l107 -6 -1 109 c-2 80 -5 110 -14 110 -7 0 -13
5 -13 10 0 6 4 10 8 10 15 0 32 49 32 91 0 31 -7 47 -33 75 -44 48 -105 57
-157 22z m110 -60 c11 -12 20 -31 20 -43 0 -29 -36 -65 -65 -65 -54 0 -85 72
-48 112 22 25 68 23 93 -4z m-234 -53 c15 -23 15 -27 0 -50 -11 -17 -26 -25
-44 -25 -35 0 -52 16 -52 50 0 34 17 50 52 50 18 0 33 -8 44 -25z m99 -75 c18
-20 17 -20 -18 -20 -40 0 -40 0 -31 24 8 22 27 20 49 -4z m162 -30 c34 -44 20
-116 -31 -162 -22 -20 -19 -20 -106 -19 -92 2 -148 11 -153 25 -3 7 -8 41 -12
77 l-7 64 33 12 c23 9 36 9 45 2 19 -16 77 -14 87 3 14 21 127 20 144 -2z"/>
<path d="M1560 1755 l0 -185 26 0 25 0 -2 126 c-1 69 1 127 3 130 3 2 13 -54
23 -126 19 -130 19 -130 46 -130 25 0 27 3 38 74 6 41 14 99 17 130 12 97 19
61 16 -74 l-4 -130 26 0 26 0 0 185 0 185 -39 0 -38 0 -18 -130 c-10 -72 -19
-129 -21 -127 -2 1 -10 50 -19 107 -24 160 -20 150 -65 150 l-40 0 0 -185z"/>
<path d="M1865 1915 c-24 -23 -25 -29 -25 -160 0 -131 1 -137 25 -160 16 -17
35 -25 60 -25 25 0 44 8 60 25 24 23 25 29 25 160 0 131 -1 137 -25 160 -16
17 -35 25 -60 25 -25 0 -44 -8 -60 -25z m83 -37 c13 -13 17 -212 6 -242 -7
-19 -54 -22 -54 -3 -3 112 -1 237 4 246 9 14 29 14 44 -1z"/>
<path d="M2034 1923 c4 -15 56 -336 56 -349 0 -2 19 -4 43 -4 l42 0 24 158
c13 86 25 169 28 185 5 24 2 27 -20 27 -29 0 -29 2 -53 -175 -14 -104 -24
-154 -24 -117 0 16 -29 231 -36 265 -5 22 -11 27 -35 27 -24 0 -29 -4 -25 -17z"/>
<path d="M2260 1755 l0 -185 30 0 30 0 0 185 0 185 -30 0 -30 0 0 -185z"/>
<path d="M2360 1755 l0 -185 75 0 c68 0 75 2 75 20 0 32 -3 34 -52 31 l-48 -2
0 55 0 56 39 0 c33 0 39 3 43 25 5 24 3 25 -39 25 l-44 0 3 53 3 52 50 0 c46
0 49 2 49 25 0 24 -2 25 -77 28 l-77 3 0 -186z"/>
<path d="M1025 1870 c-16 -11 -41 -20 -55 -20 -23 0 -25 -3 -25 -50 0 -46 2
-50 23 -50 13 0 37 -9 54 -21 16 -12 31 -19 34 -16 3 2 4 43 2 91 l-3 86 -30
-20z"/>
<path d="M663 1613 c6 -28 -32 -254 -44 -263 -3 -3 -6 -18 -7 -35 0 -16 -17
-106 -36 -200 -32 -154 -36 -188 -21 -173 6 5 88 299 133 476 15 57 28 99 29
95 2 -4 11 -142 22 -306 17 -272 23 -319 35 -306 4 4 34 510 37 614 1 22 4 31
6 21 31 -120 164 -601 168 -604 16 -16 11 23 -24 192 -22 104 -37 195 -34 203
3 8 2 18 -4 22 -12 7 -57 225 -54 264 l1 27 -106 0 -106 0 5 -27z m53 -30
c-26 -88 -56 -205 -56 -217 0 -9 -5 -16 -11 -16 -6 0 -8 8 -5 18 2 9 14 65 27
125 15 76 26 107 36 107 9 0 12 -7 9 -17z m73 -85 c-4 -57 -7 -115 -8 -130 -1
-16 -7 -28 -15 -28 -13 0 -26 102 -26 213 0 45 1 47 28 47 l27 0 -6 -102z m83
-23 c40 -199 18 -153 -48 103 -5 15 -2 22 8 22 11 0 22 -33 40 -125z m-93
-202 c-1 -27 -5 -75 -9 -108 l-7 -60 -2 76 c0 42 -4 91 -7 108 -5 24 -3 31 10
31 13 0 16 -10 15 -47z"/>
<path d="M1330 1515 c0 -21 5 -25 30 -25 l30 0 0 -158 0 -158 27 2 27 1 -3
156 -3 157 34 0 c28 0 33 4 34 25 2 25 2 25 -87 25 -88 0 -89 0 -89 -25z"/>
<path d="M1530 1358 l0 -185 30 0 30 0 0 79 c0 61 3 78 14 78 31 0 46 -30 46
-94 0 -59 1 -62 25 -61 14 1 25 5 25 8 0 4 0 36 0 72 0 49 -4 69 -17 83 -17
16 -17 18 0 35 12 12 17 33 17 70 -1 76 -16 91 -100 95 l-70 4 0 -184z m108
120 c17 -17 15 -74 -4 -92 -32 -32 -44 -20 -44 44 0 51 3 60 18 60 10 0 23 -5
30 -12z"/>
<path d="M1762 1403 c-39 -247 -38 -231 -8 -226 21 4 26 11 26 34 0 27 3 29
39 29 37 0 40 -2 43 -32 3 -26 7 -32 31 -33 15 0 27 4 27 10 0 5 -12 88 -27
183 l-27 172 -41 0 -42 0 -21 -137z m72 5 c4 -35 10 -75 13 -90 5 -26 3 -28
-27 -28 -26 0 -31 3 -26 16 4 10 9 50 13 90 3 41 9 74 13 74 4 0 11 -28 14
-62z"/>
<path d="M1970 1520 c-18 -18 -20 -33 -20 -159 0 -157 7 -177 71 -187 52 -9
89 26 96 89 l6 47 -32 0 c-29 0 -31 -2 -31 -39 0 -27 -5 -41 -16 -45 -35 -13
-44 12 -44 124 0 126 4 140 36 140 21 0 24 -5 24 -35 0 -33 2 -35 31 -35 31 0
32 0 25 43 -4 24 -15 49 -27 60 -29 24 -94 22 -119 -3z"/>
<path d="M2152 1358 l3 -181 28 -1 c27 -2 27 -1 27 59 0 62 14 104 24 75 42
-119 47 -128 74 -133 15 -3 28 -4 30 -2 2 1 -15 48 -38 104 l-40 101 40 80 40
80 -29 0 c-26 0 -31 -6 -64 -82 -20 -46 -37 -78 -37 -73 -1 6 -1 43 0 83 l1
72 -31 0 -30 0 2 -182z"/>
<path d="M2370 1358 l0 -183 75 0 75 0 0 28 c0 26 -2 27 -50 27 l-50 0 0 56 0
56 40 -7 c40 -7 40 -6 40 25 0 30 -1 31 -37 28 l-38 -3 -3 53 -3 52 50 0 c48
0 51 2 51 25 0 24 -2 25 -75 25 l-75 0 0 -182z"/>
<path d="M2560 1357 l0 -183 28 2 c27 1 27 1 27 75 1 51 5 74 13 73 7 -1 19
-2 27 -2 11 -2 15 -20 17 -74 3 -71 3 -72 31 -72 15 0 27 3 27 7 0 4 0 36 0
72 0 51 -4 69 -19 81 -18 16 -18 17 0 35 30 30 26 113 -6 144 -20 21 -34 25
-85 25 l-60 0 0 -183z m108 76 c2 -42 0 -53 -12 -54 -9 -1 -21 -2 -28 -3 -7
-1 -12 20 -13 57 -1 57 -1 58 24 55 24 -3 26 -7 29 -55z"/>
</g>
</svg>
